{"title":"Arthur Christmas 2011 DVDSCR AC3 XViD - INSPiRAL","uid":6963384,"size":1494605388,"categoryP":"video","categoryS":"movies","magnet":"?xt=urn:btih:4dabb5fa1533ea7b77621f0e6eebcdc2f77f043f&amp;dn=Arthur+Christmas+2011+DVDSCR+AC3+XViD+-+INSPiRAL&amp;tr=udp%3A%2F%2Ftracker.openbittorrent.com%3A80&amp;tr=udp%3A%2F%2Fopen.demonii.com%3A1337&amp;tr=udp%3A%2F%2Ftracker.coppersurfer.tk%3A6969&amp;tr=udp%3A%2F%2Fexodus.desync.com%3A6969","seeders":0,"leechers":1,"uploader":"TvTeam","files":5,"time":1326836802,"description":". \n &lt;a href=&quot;\nhttp://www.torrenting.com&quot; rel=&quot;nofollow&quot; target=&quot;_NEW&quot;&gt;\nhttp://www.torrenting.com&lt;/a&gt;          :     Once &amp; For all ;)\n\n\n               www . Torrenting . Com \n\n(((((((((((((= Enjoy No RAR releases =))))))))))))))))))))\n\n\n...................................NFO:....................................\n\n.ooooo oooo   oooo oooooooo8 oooooooooo  o88   oooooooooo       o      ooooo       \n 888   8888o  88 888         888    888 oooo   888    888     888      888        \n 888   88 888o88  888oooooo  888oooo88   888   888oooo88     8  88     888        \n 888   88   8888         888 888         888   888  88o     8oooo88    888      o \no888o o88o    88 o88oooo888 o888o       o888o o888o  88o8 o88o  o888o o888ooooo88 \n\n \nTITLE: \n\nArthur Christmas 2011 DVDSCR AC3 XViD - INSPiRAL\n\nIMDB: \n\nwww.imdb.com/title/tt0905372/\n\n\nSOURCES:\n\nVIDEO - Arthur.Christmas.2011.Read.Nfo.NTSC.DVDSCR.DVDR-JKR\nAUDIO - Arthur.Christmas.2011.Read.Nfo.NTSC.DVDSCR.DVDR-JKR\nSUBS - NONE ADDED\n\nSTATS:\n\nVideo\nID                               : 0\nFormat                           : MPEG-4 Visual\nFormat profile                   : Advanced Simple@L5\nFormat settings, BVOP            : 2\nFormat settings, QPel            : No\nFormat settings, GMC             : No warppoints\nFormat settings, Matrix          : Default (MPEG)\nMuxing mode                      : Packed bitstream\nCodec ID                         : XVID\nCodec ID/Hint                    : XviD\nDuration                         : 1h 37mn\nBit rate                         : 1 563 Kbps\nWidth                            : 720 pixels\nHeight                           : 400 pixels\nDisplay aspect ratio             : 16:9\nFrame rate                       : 23.976 fps\nColor space                      : YUV\nChroma subsampling               : 4:2:0\nBit depth                        : 8 bits\nScan type                        : Progressive\nCompression mode                 : Lossy\nBits/(Pixel*Frame)               : 0.226\nStream size                      : 1.06 GiB (77%)\nWriting library                  : XviD 64\n\nAudio\nID                               : 1\nFormat                           : AC-3\nFormat/Info                      : Audio Coding 3\nMode extension                   : CM (complete main)\nCodec ID                         : 2000\nDuration                         : 1h 37mn\nBit rate mode                    : Constant\nBit rate                         : 448 Kbps\nChannel(s)                       : 6 channels\nChannel positions                : Front: L C R, Side: L R, LFE\nSampling rate                    : 48.0 KHz\nBit depth                        : 16 bits\nCompression mode                 : Lossy\nStream size                      : 312 MiB (22%)\nAlignment                        : Aligned on interleaves\nInterleave, duration             : 42 ms (1.00 video frame)\nInterleave, preload duration     : 512 ms\n\n\n\nNOTES:\n\nSimple rip of the DVDR ....nothing fancy done here,just done properly :)\nAudio untouched,just stripped and remuxed.\nHeres copy 100 for you collectors out there ......enjoy.\n\nSCREENS:\n\n[IMG]http://i.imgur.com/wm8oL.png[/IMG]\n[IMG]http://i.imgur.com/Akg2q.png[/IMG]\n[IMG]http://i.imgur.com/vHBcM.png[/IMG]\n[IMG]http://i.imgur.com/rHUAX.png[/IMG]\n\nGREETZ: \n\nPast,Present and Future","torrent":{"xt":"urn:btih:4dabb5fa1533ea7b77621f0e6eebcdc2f77f043f","amp;dn":"Arthur+Christmas+2011+DVDSCR+AC3+XViD+-+INSPiRAL","amp;tr":["udp%3A%2F%2Ftracker.openbittorrent.com%3A80","udp%3A%2F%2Fopen.demonii.com%3A1337","udp%3A%2F%2Ftracker.coppersurfer.tk%3A6969","udp%3A%2F%2Fexodus.desync.com%3A6969"],"infoHash":"4dabb5fa1533ea7b77621f0e6eebcdc2f77f043f","infoHashBuffer":{"type":"Buffer","data":[77,171,181,250,21,51,234,123,119,98,31,14,110,235,205,194,247,127,4,63]},"announce":[],"urlList":[]}}